<svg enable-background="new 0 0 270 74" viewBox="0 0 270 74" xmlns="http://www.w3.org/2000/svg"><g fill="#003976"><path d="m56.2 25.6h213.8v1.2h-213.8z"/><path d="m56.2 8.9h213.8v1.2h-213.8z"/><path d="m34.9 69.2h179.6v1.2h-179.6z"/><path d="m85.7 14v5.1c0 3-1.7 4-3.9 4s-3.8-1.2-3.8-4v-5.1h1.9v5.2c0 1.3.8 2.1 1.9 2.1 1 0 2-.6 2-2.2v-5h1.9z"/><path d="m95.9 22.9h-1.6l-4.3-5.7v5.7h-1.9v-8.9h1.8l4.1 5.5v-5.5h1.9z"/><path d="m98.5 14h1.9v9h-1.9z"/><path d="m106.7 23.1h-.8l-3.8-9.1h2.1l2.1 5.1 1.9-5.1h2z"/><path d="m117.6 22.9h-5.7v-8.9h5.6v1.6h-3.7v1.9h3.5v1.6h-3.5v2.2h3.8z"/><path d="m119.9 14v9h1.9v-3.7h.6c1 0 1.3 1.7 2.2 3.7h2.1c-1.1-2.6-1.3-3.7-2.1-4.2.9-.5 1.3-1.2 1.3-2.2 0-1.3-.9-2.6-2.5-2.6zm1.9 1.6h1c.7 0 1.1.3 1.1 1 0 .8-.5 1-1.1 1h-1z"/><path d="m133.5 16.3c-1.1-.6-1.8-.8-2.4-.8-.7 0-1.1.3-1.1.7 0 1.4 3.9 1 3.9 4.1 0 1.7-1.2 2.7-3 2.7-1.3 0-2-.4-2.8-.9v-1.9c1.1.9 1.8 1.2 2.6 1.2.7 0 1.1-.3 1.1-.8 0-1.5-3.9-.9-3.9-4.2 0-1.6 1.2-2.6 2.9-2.6.9 0 1.6.2 2.6.7v1.8z"/><path d="m136 14h1.9v9h-1.9z"/><path d="m140.4 14v9h3.2c3.1 0 4.5-1.9 4.5-4.5 0-2.5-1.4-4.5-4.3-4.5zm2 1.6h1.2c1.8 0 2.5 1.3 2.5 2.8 0 1.3-.6 2.9-2.5 2.9h-1.3v-5.7z"/><path d="m153.1 16.1-1.1 3.5h2.4zm4.5 6.8h-2.1l-.6-1.8h-3.4l-.6 1.8h-2l3.1-9h2.2z"/><path d="m159.3 14v9h3.2c3.1 0 4.5-1.9 4.5-4.5 0-2.5-1.4-4.5-4.3-4.5zm1.9 1.6h1.2c1.8 0 2.5 1.3 2.5 2.8 0 1.3-.6 2.9-2.5 2.9h-1.3v-5.7z"/><path d="m175.1 17.7h.9c.9 0 1.2-.4 1.2-1 0-.8-.4-1-1.4-1h-.7zm1.5-3.7c1.8 0 2.6 1.4 2.6 2.7s-.8 2.7-2.5 2.7h-1.5v3.6h-1.9v-9z"/><path d="m189.8 18.4c0-2.2-1.5-4.6-4.4-4.6s-4.4 2.4-4.4 4.6c0 2.3 1.6 4.6 4.4 4.6 2.7.1 4.4-2.2 4.4-4.6m-2 0c0 1.6-1 2.7-2.4 2.7-1.5 0-2.4-1.1-2.4-2.7s1-2.7 2.4-2.7 2.4 1.1 2.4 2.7"/><path d="m197.8 22.9h-5.9v-8.9h2v7.3h3.9z"/><path d="m199.7 14h1.9v9h-1.9z"/><path d="m211.2 15.6h-2.8v7.3h-1.9v-7.3h-2.8v-1.6h7.5z"/><path d="m218.8 22.9h-5.6v-8.9h5.6v1.6h-3.7v1.9h3.5v1.6h-3.5v2.2h3.7z"/><path d="m228.3 22.2c-1.1.6-1.9.9-3 .9-3 0-4.5-2.3-4.5-4.6 0-2.4 1.7-4.6 4.6-4.6 1.1 0 2 .3 2.8.8v2c-.9-.6-1.7-.9-2.7-.9-1.6 0-2.8 1.1-2.8 2.7s1.1 2.8 2.7 2.8c1 0 1.7-.4 2.8-1v1.9z"/><path d="m238.4 22.9h-1.6l-4.3-5.7v5.7h-1.9v-8.9h1.8l4.1 5.5v-5.5h1.9z"/><path d="m241 14h1.9v9h-1.9z"/><path d="m252.6 22.2c-1.1.6-1.9.9-3 .9-3 0-4.5-2.3-4.5-4.6 0-2.4 1.7-4.6 4.6-4.6 1.1 0 2 .3 2.8.8v2c-.8-.6-1.7-.9-2.7-.9-1.6 0-2.8 1.1-2.8 2.7s1.1 2.8 2.7 2.8c1 0 1.7-.4 2.8-1v1.9z"/><path d="m258.4 16.1-1.1 3.5h2.4zm4.5 6.8h-2.1l-.6-1.8h-3.4l-.6 1.8h-2l3.1-9h2.2z"/><path d="m94 39c-3.2-1.9-5.1-2.6-7-2.6-2 0-3.2.9-3.2 2.4 0 4.4 11.2 3.2 11.2 13.3 0 5.6-3.6 8.8-8.5 8.8-3.8 0-5.7-1.3-7.9-2.8v-6.3c3.2 2.8 5.1 3.8 7.5 3.8 2.1 0 3.2-1 3.2-2.7 0-4.8-11.2-3-11.2-13.5 0-5 3.3-8.4 8.4-8.4 2.5 0 4.7.7 7.5 2.3z"/><path d="m111.5 31.5h-6.4l-8.9 29.1h5.8l1.7-5.8h9.8l1.8 5.8h5.9zm.5 18.2h-6.8l3.2-11.3z"/><path d="m140.7 60.6h-16.8v-29.1h5.5v23.8h11.3z"/><path d="m160 60.6h-16.2v-29.1h16v5.3h-10.5v6.1h10v5.3h-10v7.1h10.7z"/><path d="m179 39c-3.2-1.9-5.1-2.6-7-2.6-2 0-3.2.9-3.2 2.4 0 4.4 11.2 3.2 11.2 13.3 0 5.6-3.5 8.8-8.5 8.8-3.8 0-5.7-1.3-7.9-2.8v-6.3c3.2 2.8 5.1 3.8 7.5 3.8 2.1 0 3.2-1 3.2-2.7 0-4.8-11.2-3-11.2-13.5 0-5 3.3-8.4 8.4-8.4 2.5 0 4.7.7 7.5 2.3z"/><path d="m183.9 31.5h5.5v29.1h-5.5z"/><path d="m207.4 31.5h-6.4l-8.9 29.1h5.8l1.6-5.8h9.8l1.8 5.8h5.9zm.4 18.2h-6.8l3.2-11.3z"/><path d="m242 60.6h-4.6l-12.2-18.7v18.7h-5.5v-29.1h5.1l11.7 17.8v-17.8h5.5z"/><path d="m259.8 31.5h-6.4l-8.9 29.1h5.8l1.6-5.8h9.8l1.8 5.8h5.9zm.5 18.2h-6.8l3.2-11.3z"/></g><path d="m73.4 36.9c0 20-16.3 36.2-36.5 36.2s-36.5-16.2-36.5-36.2 16.3-36.2 36.5-36.2c20.1 0 36.5 16.2 36.5 36.2" fill="#ccd7e4"/><path d="m50.8 3.4c-11.3-4.4-20.2-2.1-20.2-2.1s-.5 1.4-.1 2.5c.4 1.2-1.2.8-.4 2s-1.6 1.6-3.6 4.3c-2 2.8 0 0-1.2 2s-.4 1.6-2.4 3.2-2.4 1.6-4.3 2.4c-2 .8-3.9 2.7-3.9 2.7l-8.5 30.2-1.7 3.2s9.3 19.4 32.4 19.3c0 0 7 .4 15.4-3.4l-1.4-61.3z" fill="#feecb2"/><path d="m4.5 33s-.6-1.3.9-.7c0 0 .7-.3.1-.7 0 0-1.7-.9-.2-1.9 0 0 1-.5 1.3-.8l.2-1.4.3-.1.1-1.8s-1.3-.7.2-1.2c0 0 .7-1.1 4.1-1.3 0 0 .8-.9 1.4-.7 0 0 .6-.9 1-.9 0 0 .6.3 1 1 0 0 1.1.3 1.2.9 0 0 1.4.2 2.1 1.4 0 0 .9.2.9-.1 0 0 .1-.7 1.6 1l.3 1.1 1.9.2.2.5 3.6.1.5-.9s.1-.8 2.8 1.8l1 .1.2.7 1.5.2s.5.4-1.7.3l.1.9s1.1.5 1.7 1.2l.1 2.3s-.8-.2-1.3 1.1l-.1 1.2s-3.4 5.5-8.7 6.6c0 0-2.2.7-4.6 2.1 0 0-1.9 1.4-2 1.7l-.2 1.8s-.4 1.1-1 1.2c0 0 .2 1.6-.3 1.6 0 0 1.1 1.7-.9 1.8 0 0-.6.3-.9 1.2 0 0-1.1 1.5-2.7-.7 0 0 0-1.5-1.3-1.4 0 0-1 .3-2-1 0 0-1-.5-1.2 1 0 0-1.4.5-.3-1.1 0 0-.2-.8-.6-1 0 0-.5-1 .8-.3l.7-.2.2-1.3s-.9-1.3 0-1.4c0 0 .6-.1.6-1.3l.7-.1.1-1.2.3-.3-.1-1.2.6-.1.1-1-.3-.2-.2-.6v-1.1l.2-.4v-.4l-.4.1-.4 2.4-.5-1.5-.2.8v.3l-.2.2-.1.5-.6.3v.4h-1.2s-1.3-.8-1.5-1.4c0 0-1.5.1-.7-1.4l.7-.2s.4-1.4-.5-1.7c0 0-.5-1.2.1-1l.2-1.3-.5-.5-.1-1.5c.1 0 1.7-.1 1.9-.7" fill="#6688ad"/><path d="m37.2.8c20.1 0 36.5 16.2 36.5 36.2s-16.3 36.2-36.5 36.2" fill="#003976"/><path d="m37.2 1.4c4.8 0 9.5.9 14 2.8 4.3 1.8 8.1 4.4 11.4 7.6 3.3 3.3 5.9 7.1 7.7 11.3 1.9 4.4 2.8 9.1 2.8 13.9s-.9 9.5-2.8 13.9c-1.8 4.2-4.4 8.1-7.7 11.3-3.3 3.3-7.1 5.8-11.4 7.6-4.4 1.9-9.1 2.8-14 2.8v1.2c5 0 9.9-1 14.4-2.9 4.4-1.8 8.4-4.5 11.8-7.9s6.1-7.3 8-11.7c1.9-4.5 2.9-9.4 2.9-14.3 0-5-1-9.8-2.9-14.3-1.9-4.4-4.5-8.3-8-11.7-3.4-3.4-7.4-6.1-11.8-7.9-4.6-1.9-9.4-2.9-14.4-2.9z" fill="#003976"/><path d="m40.2 28.4.2-1.8.2-2.4s1.3-2.6 3-4.2l.7 1.5s-1.7 2.9 2.6 1.6l3.5-1.7s5.2 5.2 6.6.5l1.8-.2s1.4-2.8 3-.3v1s.2.3 1.6.5c0 0 1.4 3.5-1.2 6.8l.2 2.6 2.3 2.8.2 2.6s.3.5 1-1c0 0 1.6-5.5 5.6-2.6l-.2 1.6s-1.2-2.1-2.8-.9c0 0-1.2 1.2-1.9 2.8 0 0 1.9 1.2 0 3.1l.5.7s1.4-1.6.9-3.6c0 0-.9-2.6 1.6-1.2 0 0 1.4 1.4-.7 6.2 0 0-1.2 1.6-1.4 2.1s-.3 2.1-2.3.2c0 0 .5 3.6-1.2 4.2v4s.2 4.2-6.8 4.2v-1.4l4-3.6s-2.4 2.4-3.3-.3c0 0-.7-4 .2-4.3v-2.2s-3.5-1.6-4.4-3.3c0 0 .2 1.7 1.7 2.6 0 0 2.1 1.6 1 2.6 0 0-1.7.2-2.1 1 0 0-4.2.3-4.7-.3 0 0 .5-2.4 2.8-3.1 0 0-5.1 2.4-6.5-.9 0 0 .9 2.4-.7 2.4 0 0-2.8-.3-.5-2.9 0 0 1.6-1.6-.2-1.9l-2.6 1.9s-1.6.9-1-1.6c0 0-1.4-2.9-.9-4.3-.2-.5-.4-6.9.2-9.5" fill="#fcc000"/><path d="m46.5 50.6s-.9-4-2.6-.7c0 0 .7 1.4 1.4 1.9l.2 1.4s.7 1.7 5.6 2.4c0 0 4.2 1 5.9-2.9 0 0 .2-2.6-1.9-3.8 0 0-8.4-1.2-7.7.2 0 0-.3.9 2.6.9 0 0-1.4.7-.9 1.2 0-.1-2.3.6-2.6-.6" fill="#fccd33"/><g fill="#003976"><path d="m41.1 26.6s.5 2.1 1.2 2.6c0 0 .7.9-.7.9 0 0 .2 2.6 1.4 2.6l4 .5s1.7 1.7.5 3.1l-.5 2.1s-.9 0-1.6-2.3h-2.8s-3.1 1-1-1v-.7l-1.2-.2v-2.9l.4-1.4z"/><path d="m49.3 33.6s1.4 2.9 3.1 3.1h1.4s1.9.7 2.8-.2c0 0 1-.3 1.4.7 0 0 1.2 1 .7-.5l1.2-.3s-1.6-1-2.6-2.4c0-.1-7.2.8-8-.4"/><path d="m12.9 53.7c-5.3 1.2-7.1 2.1-7.2 2.2l.6 1.1s1.8-.9 7-2.1c4.8-1.1 12.8-2.5 24.1-2.6v-1.2c-11.5.1-19.6 1.5-24.5 2.6"/><path d="m6 17.7c.1 0 1.8 1.1 7 2.3 4.8 1.1 12.9 2.5 24.3 2.6v-1.2c-11.2-.2-19.2-1.5-23.9-2.6-5.1-1.2-6.8-2.2-6.9-2.3z"/><path d="m24.7 71.4 1.1.6c2.1-4 6.8-5.3 11.2-5.3 2.6 0 5 .6 7.2 1.7 2.1 1.1 2.7 1.4 3.8 3.2l1-.6c-1.2-2-2-2.4-4.2-3.6-2.3-1.2-5-1.8-7.7-1.8-4.9-.1-10.1 1.4-12.4 5.8"/><path d="m44.5 6.5c-2.2 1.2-4.8 1.9-7.5 1.9-5.3 0-9.8-1.8-11.9-5.8l-1.1.6c2.3 4.3 7.2 6.4 13 6.4 5.9 0 10.2-2 12.4-6.4l-1.1-.5c-.9 1.9-1.6 2.6-3.8 3.8"/><path d="m14.4 17.2c-2.8 5.9-4.3 12.8-4.3 19.9 0 7.2 1.6 14.3 4.5 20.3 2.9 5.9 6.9 10.5 11.7 13.4l.6-1c-9.5-5.7-15.6-18.5-15.6-32.7 0-6.9 1.5-13.6 4.2-19.4 2.7-5.6 6.4-10.1 10.9-12.9l-.7-1c-4.6 3-8.5 7.6-11.3 13.4"/><path d="m23.4 37c0 12 2.7 23.1 7.5 30.5l1-.6c-2.2-3.4-4-7.9-5.3-12.9-1.3-5.3-2-11-2-16.9 0-11.1 2.4-21.7 6.7-28.9l-1-.6c-4.5 7.3-6.9 18-6.9 29.4"/><path d="m.5 36.9h38v1.2h-38z"/><path d="m23.1 69.6c-4.3-1.8-8.1-4.3-11.4-7.6-3.3-3.2-5.9-7-7.7-11.2-1.9-4.4-2.8-9-2.8-13.8s.9-9.4 2.8-13.8c1.8-4.2 4.4-8 7.7-11.3s7.1-5.8 11.4-7.6c4.2-1.8 8.7-2.7 13.4-2.8v70.9c-4.6-.1-9.1-1-13.4-2.8m14-69.3c-5 0-9.9 1-14.4 2.9-4.4 1.8-8.4 4.5-11.8 7.9s-6.1 7.3-8 11.6c-1.9 4.5-2.9 9.3-2.9 14.3s1 9.7 2.9 14.3c1.9 4.4 4.5 8.3 8 11.6 3.4 3.4 7.4 6 11.8 7.9 4.6 1.9 9.4 2.9 14.4 2.9h.6v-73.4z"/><path d="m222.6 71.6h-4.8v-6.5h4.8v1.2h-3.2v1.3h3v1.2h-3v1.6h3.2z"/><path d="m230 71c-.9.5-1.6.7-2.6.7-2.6 0-3.8-1.6-3.8-3.3s1.4-3.4 4-3.4c.9 0 1.7.2 2.4.6v1.4c-.7-.4-1.5-.7-2.3-.7-1.4 0-2.4.8-2.4 2s1 2 2.3 2c.9 0 1.4-.3 2.4-.7z"/><path d="m237.8 65.1v3.7c0 2.2-1.5 2.9-3.3 2.9-1.9 0-3.3-.9-3.3-2.9v-3.7h1.6v3.8c0 .9.7 1.5 1.6 1.5s1.7-.4 1.7-1.6v-3.6h1.7z"/><path d="m242.7 65.1h-1.9l-2.7 6.5h1.7l.5-1.3h2.9l.5 1.3h1.8zm.1 4.1h-2l1-2.5z"/><path d="m246.3 65.1v6.5h2.7c2.6 0 3.8-1.4 3.8-3.3 0-1.8-1.2-3.3-3.6-3.3h-2.9zm1.7 1.2h1c1.6 0 2.2.9 2.2 2.1 0 1-.5 2.1-2.1 2.1h-1.1z"/><path d="m261.3 68.3c0-1.6-1.3-3.3-3.8-3.3s-3.8 1.8-3.8 3.3c0 1.7 1.4 3.3 3.8 3.3 2.4.1 3.8-1.6 3.8-3.3m-1.7 0c0 1.2-.8 2-2.1 2s-2.1-.8-2.1-2 .8-2 2.1-2 2.1.8 2.1 2"/><path d="m264.2 67.8h.9c.5 0 .9-.2.9-.7s-.3-.7-.9-.7h-.8v1.4zm1.3-2.7c1.4 0 2.2.9 2.2 1.9 0 .7-.4 1.3-1.1 1.6.7.3.9 1.1 1.8 3.1h-1.8c-.7-1.4-1-2.7-1.8-2.7h-.5v2.7h-1.6v-6.5h2.8z"/><path d="m217.1 11.1-1.5 1.9 2.9-.9z"/></g></svg>