<svg viewBox="0 0 270 74" xmlns="http://www.w3.org/2000/svg"><g fill="#fff"><path d="m219.45 69.1h2.98v-1.2h-2.98v-1.37h3.13v-1.2h-4.76v6.54h4.82v-1.2h-3.19z"/><path d="m225.29 68.59a2.12 2.12 0 0 1 2.37-2 4.6 4.6 0 0 1 2.25.67v-1.44a4.55 4.55 0 0 0 -2.37-.58c-2.5 0-3.93 1.63-3.93 3.38s1.27 3.38 3.81 3.38a5.07 5.07 0 0 0 2.58-.7v-1.43a5.11 5.11 0 0 1 -2.37.72 2.1 2.1 0 0 1 -2.34-2z"/><path d="m236.14 69a1.51 1.51 0 0 1 -1.66 1.62 1.47 1.47 0 0 1 -1.62-1.5v-3.79h-1.63v3.72c0 2 1.37 2.9 3.27 2.9s3.27-.74 3.27-2.91v-3.71h-1.63z"/><path d="m240.68 65.33-2.68 6.54h1.73l.49-1.3h2.92l.54 1.3h1.75l-2.9-6.54zm0 4.1 1-2.54 1 2.54z"/><path d="m249.11 65.33h-2.89v6.54h2.71c2.6 0 3.79-1.38 3.79-3.26s-1.22-3.28-3.61-3.28zm-.19 5.34h-1.07v-4.14h1.05a2.07 2.07 0 1 1 0 4.14z"/><path d="m257.39 65.24a3.37 3.37 0 1 0 3.74 3.36 3.49 3.49 0 0 0 -3.74-3.36zm0 5.35a2 2 0 1 1 2.06-2 1.92 1.92 0 0 1 -2.06 2z"/><path d="m266.25 68.81a1.69 1.69 0 0 0 1.12-1.6 2 2 0 0 0 -2.13-1.88h-2.93v6.54h1.63v-2.66h.47c.88 0 1.14 1.26 1.84 2.66h1.8c-.92-1.87-1.13-2.73-1.8-3.06zm-1.44-.8h-.87v-1.48h.83c.61 0 .93.25.93.73s-.44.74-.89.74z"/><path d="m86.07 55.52c-2.42 0-4.36-1-7.52-3.74v6.22c2.19 1.49 4.1 2.8 7.94 2.8 4.9 0 8.45-3.23 8.45-8.79 0-10.12-11.19-8.89-11.19-13.26 0-1.45 1.25-2.38 3.22-2.38s3.78.72 7 2.59v-5.62a14.43 14.43 0 0 0 -7.45-2.26c-5.1 0-8.39 3.32-8.39 8.33 0 10.42 11.2 8.67 11.2 13.43-.03 1.7-1.16 2.68-3.26 2.68z"/><path d="m96.3 60.45h5.81l1.64-5.74h9.84l1.81 5.74h5.91l-9.78-29h-6.36zm12.13-22.06 3.57 11.27h-6.8z"/><path d="m123.86 31.46v28.99h16.78v-5.31h-11.3v-23.68z"/><path d="m159.77 36.78v-5.32h-16v28.99h16.23v-5.31h-10.75v-6.97h10.04v-5.32h-10.04v-6.07z"/><path d="m171.1 55.52c-2.42 0-4.36-1-7.52-3.74v6.22c2.19 1.49 4.1 2.8 7.94 2.8 4.9 0 8.45-3.23 8.45-8.79 0-10.12-11.19-8.89-11.19-13.26 0-1.45 1.25-2.38 3.22-2.38s3.78.72 7 2.59v-5.62a14.43 14.43 0 0 0 -7.45-2.26c-5.1 0-8.39 3.32-8.39 8.33 0 10.42 11.2 8.67 11.2 13.43-.03 1.7-1.16 2.68-3.26 2.68z"/><path d="m183.88 31.47h5.49v28.98h-5.49z"/><path d="m192.07 60.45h5.81l1.65-5.74h9.84l1.81 5.74h5.9l-9.78-29h-6.3zm12.14-22.06 3.55 11.27h-6.76z"/><path d="m225.15 41.88 12.16 18.57h4.62v-28.99h-5.49v17.73l-11.74-17.73h-5.04v28.99h5.49z"/><path d="m253.39 31.47-8.88 29h5.81l1.68-5.76h9.84l1.8 5.74h5.91l-9.78-29zm0 18.19 3.22-11.27 3.55 11.27z"/><path d="m78 13.69v5c0 2.75 1.78 3.94 4.25 3.94s4.25-1 4.25-4v-5h-2.09v4.94a2 2 0 0 1 -2.15 2.2 2 2 0 0 1 -2.11-2v-5.08z"/><path d="m90.33 13.69h-1.95v8.86h2.12v-5.68l4.7 5.68h1.78v-8.86h-2.12v5.42z"/><path d="m98.97 13.69h2.12v8.87h-2.12z"/><path d="m104.4 13.69h-2.3l4.11 8.98h.93l3.92-8.98h-2.28l-2.13 5.06z"/><path d="m118.22 15.31v-1.62h-6.18v8.86h6.27v-1.62h-4.15v-2.13h3.87v-1.63h-3.87v-1.86z"/><path d="m126.51 16.23a2.59 2.59 0 0 0 -2.78-2.54h-3.8v8.86h2.12v-3.55h.61c1.15 0 1.49 1.71 2.4 3.6h2.33c-1.2-2.6-1.46-3.69-2.33-4.14a2.3 2.3 0 0 0 1.45-2.23zm-3.34 1.1h-1.12v-2h1.07c.8 0 1.21.34 1.21 1s-.57 1-1.16 1z"/><path d="m131 21.05a4.79 4.79 0 0 1 -2.9-1.15v1.91a5.51 5.51 0 0 0 3.06.86c1.9 0 3.27-1 3.27-2.69 0-3.09-4.33-2.72-4.33-4.06 0-.44.49-.73 1.25-.73a6.43 6.43 0 0 1 2.69.8v-1.73a6.72 6.72 0 0 0 -2.88-.69c-2 0-3.24 1-3.24 2.55 0 3.18 4.33 2.65 4.33 4.11.04.52-.4.82-1.25.82z"/><path d="m135.98 13.69h2.12v8.87h-2.12z"/><path d="m143.8 13.69h-3.8v8.86h3.52c3.39 0 4.94-1.87 4.94-4.42s-1.56-4.44-4.66-4.44zm-.25 7.24h-1.38v-5.62h1.35a2.56 2.56 0 0 1 2.8 2.81 2.58 2.58 0 0 1 -2.77 2.81z"/><path d="m151.34 20.8h3.81l.7 1.75h2.28l-3.78-8.86h-2.46l-3.43 8.86h2.25zm1.81-5 1.37 3.44h-2.62z"/><path d="m159.1 13.69v8.86h3.52c3.39 0 4.94-1.87 4.94-4.42s-1.6-4.44-4.71-4.44zm6.27 4.43a2.57 2.57 0 0 1 -2.77 2.81h-1.38v-5.62h1.36a2.56 2.56 0 0 1 2.79 2.81z"/><path d="m172.67 13.69v8.86h2.12v-3.55h1.68a2.65 2.65 0 1 0 0-5.3zm4.43 2.65c0 .66-.35 1-1.33 1h-1v-2.03h.75c1.16 0 1.58.27 1.58 1.03z"/><path d="m180.4 18.12a4.88 4.88 0 1 0 4.88-4.55 4.62 4.62 0 0 0 -4.88 4.55zm7.56 0a2.69 2.69 0 1 1 -5.38 0 2.69 2.69 0 1 1 5.38 0z"/><path d="m191.67 13.69v8.86h6.49v-1.62h-4.37v-7.24z"/><path d="m199.42 13.69h2.12v8.87h-2.12z"/><path d="m208.1 22.55v-7.24h3.08v-1.62h-8.28v1.62h3.08v7.24z"/><path d="m212.49 22.55h6.27v-1.62h-4.15v-2.13h3.88v-1.63h-3.88v-1.86h4.06v-1.62h-6.18z"/><path d="m215.41 10.93-.93 1.9h.93l2.05-1.9z"/><path d="m225.28 15.42a5.7 5.7 0 0 1 2.93.91v-2a5.78 5.78 0 0 0 -3.08-.78c-3.25 0-5.11 2.21-5.11 4.58s1.65 4.52 4.95 4.52a6.43 6.43 0 0 0 3.34-.88v-1.92a6.43 6.43 0 0 1 -3.08 1 2.73 2.73 0 1 1 .05-5.41z"/><path d="m231.95 13.69h-1.94v8.86h2.12v-5.68l4.7 5.68h1.78v-8.86h-2.12v5.42z"/><path d="m240.6 13.69h2.12v8.87h-2.12z"/><path d="m249.57 15.42a5.76 5.76 0 0 1 2.94.91v-2a5.82 5.82 0 0 0 -3.08-.78c-3.26 0-5.12 2.21-5.12 4.58s1.65 4.52 4.95 4.52a6.49 6.49 0 0 0 3.35-.88v-1.92a6.5 6.5 0 0 1 -3.09 1 2.73 2.73 0 1 1 0-5.41z"/><path d="m253.38 22.55h2.24l.64-1.75h3.8l.7 1.75h2.24l-3.78-8.86h-2.45zm4.69-6.74 1.37 3.44h-2.62z"/><path d="m61.67 21.62a1.34 1.34 0 0 0 -.26-.87c-.67-.87-1.48-.93-2.15-.07a2.13 2.13 0 0 1 -1.86.88.66.66 0 0 0 -.67.48 2.09 2.09 0 0 1 -3 1.33 8.27 8.27 0 0 1 -2.93-1.86.8.8 0 0 0 -1.09-.15 21.15 21.15 0 0 1 -2.61 1.3 7.78 7.78 0 0 1 -2.17.5c-.93.08-1.3-.44-.92-1.29s-.28-1.39-.5-2.17a8.26 8.26 0 0 0 -.62.66c-.65.92-1.28 1.86-1.93 2.79a3.5 3.5 0 0 0 -.58 2c0 .51-.06 1-.12 1.53a56.67 56.67 0 0 0 -.55 7.92 17.77 17.77 0 0 1 0 2.73 6.73 6.73 0 0 0 .29 2.67c.26.89.79 1.73.54 2.72v.14c.11.53.42.73.93.56a2.23 2.23 0 0 0 .58-.33c.68-.48 1.35-1 2-1.47a.53.53 0 0 1 .77 0 .89.89 0 0 1 .2.71 3.92 3.92 0 0 1 -.54.89 12.36 12.36 0 0 0 -.72 1.06 1.16 1.16 0 0 0 0 1.36 1.62 1.62 0 0 0 1.39.62.75.75 0 0 0 .78-.65c.06-.36.06-.73.09-1.1 1.43 1.5 3.15 1.11 4.71.76-.37.59-.83 1.22-1.18 1.91s-.25.91.53 1c1.27.1 2.55.07 3.82.08a.36.36 0 0 0 .25-.11 2.52 2.52 0 0 1 1.79-.9c.34-.06.56-.25.54-.57a1.9 1.9 0 0 0 -.22-1 6.42 6.42 0 0 0 -1.26-1.29 3.78 3.78 0 0 1 -1.47-2.12 7.74 7.74 0 0 0 3 2.33 1.74 1.74 0 0 1 1.21 2.15c0 .26 0 .53-.11.79a3.59 3.59 0 0 0 -.27.8 27.52 27.52 0 0 0 .16 3.14c.19 1.46.81 1.87 2.32 1.65-.79.72-1.49 1.45-2.28 2.05a1.81 1.81 0 0 0 -.7 1.75c0 .29.12.38.41.38a9.14 9.14 0 0 0 4-.79 4 4 0 0 0 2.52-3.89c0-1 0-2 0-3.07a.65.65 0 0 1 .31-.63 1.77 1.77 0 0 0 .61-.77 10.54 10.54 0 0 0 .35-1.76 11.66 11.66 0 0 0 0-1.33c.2.17.32.28.45.37a3.4 3.4 0 0 0 .45.28c.54.26.88.09 1.14-.45s.7-1.31 1.06-2a17.07 17.07 0 0 0 .88-1.63 9.66 9.66 0 0 0 .78-3.87c0-1.13-.41-1.68-1.31-1.9-.62-.15-1 .1-1 .75a8.62 8.62 0 0 0 .2 1.22 4.14 4.14 0 0 1 -.85 3.19c-.41-.3-.48-.55-.16-1a1.7 1.7 0 0 0 -.09-2.53c-.19-.2-.23-.36-.08-.58.51-.72 1-1.47 1.52-2.15a1.44 1.44 0 0 1 2.16-.21 9.24 9.24 0 0 1 .85.83c.06-.54.12-1 .16-1.48a.38.38 0 0 0 -.13-.24 3.12 3.12 0 0 0 -2.87-.66 3.47 3.47 0 0 0 -2 1.8c-.36.65-.61 1.37-1 2a3.59 3.59 0 0 1 -.52.66l-.16-.07a9.85 9.85 0 0 1 -.1-1.08 3.12 3.12 0 0 0 -.95-2.58c-.18-.16-.3-.38-.46-.55a2.86 2.86 0 0 1 -1-2.44c0-.05 0-.09 0-.14a2.57 2.57 0 0 1 .39-1.89 6.94 6.94 0 0 0 1-4.95c-.1-.77-.27-1.38-1.22-1.41-.33.1-.55-.21-.53-.74zm-14.16 14.71a5.72 5.72 0 0 0 -.46 1.6c-.12.44-.31.51-.58.13a8.48 8.48 0 0 1 -.86-1.53c-.14-.3-.27-.45-.62-.44a13.1 13.1 0 0 0 -3.42.26.74.74 0 0 1 -.38-.05l-.19-.08s0-.09 0-.14a1.59 1.59 0 0 1 .16-.41 5 5 0 0 1 .37-.43.54.54 0 0 0 -.37-.93c-.9-.11-.7-.15-.76-.88a21.29 21.29 0 0 1 .44-4.51c.08-.6.13-1.19.2-1.79h.09l.11.26c.33.61.63 1.24 1 1.84.25.41.22.66-.23.73s-.49.32-.4.67.14.62.23.93a1.54 1.54 0 0 0 1.54 1.25c1.08.08 2.15.23 3.22.4a1.17 1.17 0 0 1 .66.4 2.2 2.2 0 0 1 .25 2.72zm11.24 1.07a.7.7 0 0 1 -.75-.4 1 1 0 0 0 -1.57-.4 2.66 2.66 0 0 1 -1.86.21 6.85 6.85 0 0 0 -1.57-.18 2.52 2.52 0 0 1 -2.16-.93c-.47-.55-.89-1.15-1.34-1.73l.1-.09a15.82 15.82 0 0 0 5.18.28c.76 0 1.52-.14 2.28-.2a.51.51 0 0 1 .3.09c.77.75 1.53 1.52 2.32 2.3-.53.14-1.26.15-.93 1.05z"/><path d="m57 52.31a5.66 5.66 0 0 0 -.34-1.53c-.4-1-.93-1.86-2.11-2-1.44-.16-2.88-.32-4.33-.4a14.23 14.23 0 0 0 -2.52.16.53.53 0 0 0 -.18 1 1.88 1.88 0 0 0 .69.31c.45.09.91.14 1.29.19-.19.34-.36.68-.56 1a.55.55 0 0 1 -.29.2 4.31 4.31 0 0 1 -.61.1 1.33 1.33 0 0 1 -1.6-1 6.29 6.29 0 0 0 -.8-1.49.77.77 0 0 0 -.75-.14 3.53 3.53 0 0 0 -1 1.14c-.09.19.18.59.33.88a2.19 2.19 0 0 0 .5.7 1.67 1.67 0 0 1 .57 1.4 1.38 1.38 0 0 0 .55 1.07 7.9 7.9 0 0 0 .78.55 11.87 11.87 0 0 0 5.94 1.42 4.6 4.6 0 0 0 4.24-2.73 1.56 1.56 0 0 0 .2-.83z"/><path d="m269.26 25.59h-195.85a5.42 5.42 0 0 0 -.57 0 .46.46 0 0 1 -.46-.14.73.73 0 0 1 -.16-.29c-.57-1.44-1.1-2.9-1.76-4.29a35.76 35.76 0 0 0 -7.62-10.47 5.76 5.76 0 0 1 -.42-.47l-.1-.11h207.58v-1.11h-208.21a1.83 1.83 0 0 1 -.85-.18 1.61 1.61 0 0 1 -.4-.26 36.44 36.44 0 0 0 -10.44-5.92 37 37 0 0 0 -11.42-2.24c-.68 0-1.37 0-2 0l-1.73.07a31 31 0 0 0 -6.78 1 37.19 37.19 0 0 0 -24.86 20.82 36.4 36.4 0 0 0 -3.21 14.77c0 1.46.13 2.93.26 4.39a31.77 31.77 0 0 0 1.65 7.53 36.53 36.53 0 0 0 9.52 14.93 37.15 37.15 0 0 0 23.34 10.2c.58 0 1.17.05 1.76.06a36.42 36.42 0 0 0 15.27-3 3.56 3.56 0 0 1 1.47-.31h160.47.66v-1.09h-159.31v-.11a36.83 36.83 0 0 0 14.91-15.37c.48-.93.93-1.89 1.34-2.87a37 37 0 0 0 1.4-24.43h196.33a4.26 4.26 0 0 0 .62 0 .38.38 0 0 0 .25-.21c.17-.71.06-.9-.68-.9zm-256.53 28.26s0-.06 0-.09a3.74 3.74 0 0 1 0-.42c.18.32.18.42 0 .51zm11.48-28.23c-.06.42-.11.84-.16 1.26a1 1 0 0 1 -.89-.19 1.69 1.69 0 0 0 -1.32-.32 1 1 0 0 1 -1.24-1.23c0-.29-.07-.44-.39-.47a.75.75 0 0 1 -.76-.58c-.05-.38-.22-.37-.47-.29s-.6.16-.78 0a7.25 7.25 0 0 0 -1.85-1c-.63-.32-1.05-.91-1.74-1.13a2.31 2.31 0 0 1 -.66-.34c.08-.24.16-.48.23-.72s.26-.46.68-.39c2.74.47 5.49.91 8.23 1.35a9.36 9.36 0 0 0 1.29.11c.37 0 .5.14.43.53-.22 1.15-.45 2.27-.6 3.41zm-10.06 26.51a2.55 2.55 0 0 1 .44-2.13.66.66 0 0 0 .06-.4 1.49 1.49 0 0 1 .6-1.22.91.91 0 0 0 .34-.66c.05-.4.12-.8.19-1.2 0-.14.11-.27.27-.24s.2.16.16.31a2.59 2.59 0 0 0 0 .28c.37-.11.63-.26.38-.64s-.06-.36.1-.51l1.57-1.53a.59.59 0 0 1 .29-.19 45.76 45.76 0 0 0 5-1.78c.13 1.74.33 3.47.55 5.2.17 1.35.44 2.7.69 4 .06.34 0 .43-.34.46a88.49 88.49 0 0 0 -9.7 1.52c-.16 0-.34 0-.52.06-.12-.34-.24-.68-.35-1 .12-.01.31-.13.27-.33zm10.59-31.53c-1.76-.24-3.53-.45-5.29-.71-1.35-.2-2.69-.48-4-.72-.17 0-.33-.09-.57-.15a32.58 32.58 0 0 1 10.6-13.88c.7.58 1.33 1.17 2 1.66s1.44.85 2.13 1.25c-.75 1.68-1.59 3.32-2.2 5-.83 2.35-1.5 4.76-2.21 7.15-.06.34-.2.44-.46.4zm-15.81-5.77a34.64 34.64 0 0 1 9.92-8.6c1.62-.92 3.35-1.64 5-2.47.33-.16.55-.15.71 0a1 1 0 0 1 .19.39c-5.14 3.79-8.61 8.85-11.15 14.71l-5.95-1.78-.33-.08c.61-.84 1.09-1.52 1.61-2.17zm-4.46 7.25c.61-1.31 1.37-2.56 2.05-3.84a.38.38 0 0 1 .48-.24c1.87.61 3.76 1.18 5.65 1.76l.42.13c-.23.69-.44 1.35-.67 2a.94.94 0 0 1 -.34.08 1 1 0 0 0 -.68.26.82.82 0 0 1 -.64.22 1.46 1.46 0 0 0 -1.23.33.72.72 0 0 1 -.51.22.89.89 0 0 0 -.55.16c-.49.24-.83.79-1.45.74a.53.53 0 0 0 -.6.35.51.51 0 0 0 .29.67c.2.08.3.33.2.46-.24.3-.14.52 0 .77 0 .07.09.16 0 .21s-.16.36-.14.54a2.06 2.06 0 0 1 -1.11 2 4.85 4.85 0 0 0 -1.14 1.1.56.56 0 0 0 -.08.74.89.89 0 0 1 -.06 1.11 1.58 1.58 0 0 0 -.24.44c-.29.82-.29.82-1.18.79a.72.72 0 0 0 -.73 1 2 2 0 0 0 .38.65.79.79 0 0 1 .08 1.27 1 1 0 0 0 -.22.93h-.93c-.26 0-.35-.16-.35-.5a34.74 34.74 0 0 1 3.3-14.35zm2.41 33.53a.49.49 0 0 1 -.62-.29 35.26 35.26 0 0 1 -4.57-12.32c-.23-1.31-.31-2.65-.42-4-.05-.66-.05-.88.27-1a4.19 4.19 0 0 1 .7 0h.76a1.38 1.38 0 0 1 -1.1 1.86c-.33.11-.15.29 0 .41a2.09 2.09 0 0 0 1.1.63 1.13 1.13 0 0 1 .77.5 3 3 0 0 0 1.48 1.18c.17.06.31.1.39-.07.25-.52.78-.85.91-1.43a.56.56 0 0 1 .33-.43.37.37 0 0 0 .07.14c.08.13.16.15.24.24s.08.4.12.4.09-.34.1-.4a5.27 5.27 0 0 0 .13-1.13c0-.26-.08-.39 0-.53a.53.53 0 0 1 .33-.21c0 .8-.28 1.63.35 2.36a.54.54 0 0 1 0 .65 7.86 7.86 0 0 0 -.62 1.7 2.62 2.62 0 0 1 -1 1.83 2 2 0 0 1 -1.12.3c-.1 0-.22 0-.26.09s.07.14.13.2a1.49 1.49 0 0 1 .5 1.27 2.58 2.58 0 0 0 .15 1.09.3.3 0 0 1 -.2.44c-.23.1-.33.52-.7.25a.48.48 0 0 0 -.61 0 .72.72 0 0 0 -.14.84c.06.19.07.4.38.35s.3.1.16.3l-.26.37c-.1.17-.3.34-.09.53a.54.54 0 0 0 .66.08 2.09 2.09 0 0 0 .63-.59c.27-.35.55-.31.86-.05s.38.28.57.42a1.23 1.23 0 0 0 1.27.22c.42-.18.67 0 .84.41a5 5 0 0 1 .39 1.25 1 1 0 0 0 .24.53 2 2 0 0 0 .53.49l-3.59 1.1zm18.44 15a2.93 2.93 0 0 1 -.53-.09 35.6 35.6 0 0 1 -7-3.43 32.54 32.54 0 0 1 -6.64-5.45c-1.33-1.43-2.5-3-3.74-4.54a3.09 3.09 0 0 1 -.22-.4l.33-.11c.45-.16.88-.32 1.32-.45 1.36-.38 2.73-.71 4.09-1.11.42-.12.55 0 .7.37a37 37 0 0 0 5.5 9.31 28.68 28.68 0 0 0 5.7 5.36l.22.16.3.23zm.46-1.34a27.85 27.85 0 0 1 -5.93-5.59 35.73 35.73 0 0 1 -5-8.51c-.06-.14-.11-.29-.2-.51a98.46 98.46 0 0 1 10.35-1.6c.75 2.39 1.44 4.75 2.23 7.08a36.18 36.18 0 0 0 3.11 6.69 11 11 0 0 0 -1.14.56c-.9.6-1.79 1.21-2.64 1.87a.5.5 0 0 1 -.78.04zm10 3.37a34.83 34.83 0 0 1 -9.34-1.58l.26-.3c2.48-2.79 5.64-3.63 9.08-3.9zm0-7c-.69.07-1.38.14-2.06.24a14.65 14.65 0 0 0 -1.86.4.43.43 0 0 1 -.58-.23 37.48 37.48 0 0 1 -3.12-6.82c-.65-2-1.18-4-1.77-6 0-.12 0-.24-.06-.47l9.45-.51zm0-14.52c-1.1 0-2.19 0-3.28.1-2 .13-4 .29-6 .45-.33 0-.51 0-.56-.39-.36-2.52-.77-5-1.05-7.55-.08-.67-.12-1.35-.15-2a6.66 6.66 0 0 0 2.12-1.41l1.39-1.32c.31-.31.61-.62.9-.94q3.3 0 6.6 0zm0-14.29h-5.64a6.15 6.15 0 0 0 1.17-3c0-.34.15-.56.57-.48s.5 0 .38-.46a1.81 1.81 0 0 1 -.06-1.46.52.52 0 0 0 -.26-.7 1.21 1.21 0 0 1 -.76-1 1.12 1.12 0 0 0 -.64-.69c-.08-.05-.25 0-.21-.22a.32.32 0 0 1 .42 0c.3.21.62.08.93.09.09 0 .23 0 .25-.11s-.1-.23-.22-.23a1.83 1.83 0 0 1 -1-.48.67.67 0 0 0 -.34-.1 1.93 1.93 0 0 1 -1.61-.81c-.13-.15-.28-.29-.41-.44a2.19 2.19 0 0 0 -2-.67c-.14 0-.19.07-.24.2-.18.46-.48.68-.86.62.19-1.52.44-3 .74-4.55.09-.42.26-.51.69-.46 1 .13 2 .19 3 .24 2 .11 4.08.19 6.12.27zm0-15.63c-3.12 0-6.23-.26-9.44-.52.19-.77.37-1.47.56-2.18a47 47 0 0 1 3.75-9.69c.18-.34.35-.41.7-.3a17 17 0 0 0 4.43.74zm0-13.15a37.65 37.65 0 0 1 -3.83-.59 10.58 10.58 0 0 1 -4.87-2.46c-.48-.45-.9-1-1.4-1.54l-.2-.22a35.07 35.07 0 0 1 10.27-1.9zm1.53-6.59a35.44 35.44 0 0 1 10.69 1.8 12.25 12.25 0 0 1 -4.48 3.74 13.54 13.54 0 0 1 -3.59 1 13.78 13.78 0 0 1 -2.65.17zm0 70.79v-5.33a14.64 14.64 0 0 1 2.65.18 12.77 12.77 0 0 1 3.59 1.05 12.29 12.29 0 0 1 3.7 2.72 35.09 35.09 0 0 1 -9.97 1.46zm11.24-1.87a13.23 13.23 0 0 0 -4.5-3.38 14.1 14.1 0 0 0 -3.93-1.15 15.83 15.83 0 0 0 -2.84-.19v-56.23h.38a15.6 15.6 0 0 0 2.46-.2 14.56 14.56 0 0 0 3.88-1.14 13.52 13.52 0 0 0 5.24-4.41 35.34 35.34 0 0 1 -.76 66.78z"/></g></svg>